<?xml version="1.0" encoding="UTF-8"?>
<svg version="1.1" viewBox="0 0 1600 1600" width="80" height="80" xmlns="http://www.w3.org/2000/svg">
<path transform="translate(379,199)" d="m0 0h13l7 3 4 1 9 2 14 7 12 11 7 7 9 11 11 15 13 21 15 29 9 20 16 40 10 27 1 3 10-3 13-3 11-2 25-2 15-3h3l2-27 6-31 10-37 7-12 7-8 10-7 12-4 21-3 22-3 11-3 3-5 14-4 29-3 32-1 5-2 7-6 9-3 5-1h31l17 4 22 11 8-1 17-2h10l15 3 13 5 11 7 13 13 9 14 8 21 6 19 4 6 10 9 9 11 8 10 10 22 5 14 3 3 3 1v2l-5-1-4 19 2 18 2 5v9l1-1 1-9 3-1 8 3-2 4-6 5h-2l-2 6h-2l-5 18-7 18-7 21-8 16-10 16-8 11-6 8h-2l-2 4-16 16h-2v2l-14 11-12 9-19 13-7 8-1 6-2 28-1 153-4 2-56 9-22 2-59 1-38-1-34-2-39-5-21-3-2-1-1-6-1-18-1-150-2-16-5-14-15-33-5-15-6-25-8-47-3-23h-7l-10 3-15 5-15 4v19l3 42 1 20v12l-3 39-4 26-5 17-10 21-10 15-9 9-11 7-12 7-8 4-5 1h-10l-12-5-6-4-9-10v-4l8 1 13 6 9 1 8-2 6-1 2 4h2l-1-7 4-7-10 2-11 1h-19l-11-3-13-15-6-5-10-13-11-16-9-15-12-19-5-7 1-5 3-3 3-1h16l14 2h4l-3-15-8-26-15-52-8-37-5-30-3-25-1-18v-14l2-34v-9l-3-2 1-5-6-2 1-13 4-21 8-16 7-13 4-13 4-8 5-4 6-2 4-1 7 11 9 11 10 13 13 18 12 19 14 25 10 23 11 28 6 17 4 4 10 7v2l-29 5-21 3-3 2v11l1 21-3 7-5-5-3-13-1-5-1-19-1-3 5-10 9-9 8-7-1-3-4-4-9 1-8 6-6 9-5 13-2 14 1 17 4 20 7 19 7 13 14 15 9 11 8 7 7 3-1-5-4-8-9-9-8-11-1-3-2-18 17 1 22-3 10-1 3 29 4 33 2 29v27l-2 23-5 33 7-15 4-26 1-12v-62l-4-48-1-8-6-5 2-3 9-2h7l5 5 36-6 17-3 31-6 28-6 46-5 10-4 13-10h-3l-27 4-35 5-56 10-31 5-24 4-14 4-15 4-49 7-4-1-5-10v-2l19-7 19-5 30-7 106-19 35-7 5-2-1-11h2l3 8 16-2 24-4 3-2-1-15-5-26-5-30-7-34-5-15-4-6v-2h-29l-12 4-4 3h-2l4 8 8 18 9 17 8 13 8 14 5 8 7 6h10l-2 5-8 16-9 4h-7l-3-1 2 4-1 4-4 1-1 2-1-3-5-2-13-6-3-1h-8l-33 6-25 3-26 3-20 3-8 5-11-1-5-10-11-30-13-30-12-25-12-22-14-20-11-13-7-8-9-10-20-20-3-6-5 8-10-5-17 2-14 8-24 15-26 14-10 8-12 13-7 11-6 11-6 7-2 1h-7l-4-1-8 7-11 11-15 20-6 5-1-6 3-12 5-8 14-15 15-10 15-14 12-13 7-9 7-7 13-9 17-9 26-17 16-10 17-8zm447 38-10 3-6 5-1 4 3 1-2 31v98l1 15 2 9 2 2h13l10 3 3 2-8-1-2 1h-10l-3 8 1 21v13l-3 12-4 9 1 4 7 3 8 2h17l5-5 8-9 7-12 4-8 1-3-4-4 7 1 4 2-4-5-6-4-4-8-1-5 2-6 2-39 5-44 4-29 6-34v-18l-6-8-12-6-5-1zm88 8-6 4-6 8-5 13-3 15-4 27-1 6v13l7 10 6 11 11 16 12 12 18 12 14 7 14 5-4 4-11 6-7 6-5 10-3 20v3l-33-1h-15l-14 4-9 5-14 12-14 16-2 1-14 1-26-1-11 2-6 4-4 11h-3l1-7 5-4 1-5-2-7 1-8 8-9 5-10 1-9v-31l-2-19-6-110-2-18-4-11-5-6-7-3h-22l-17 3-12 4-1 3 7 56 6 42 9 45 3 8 4 26 2 22 3 11 9 14h-1l-8-7-19-11-9-3h-12l-20 7-26 9-16 8-12 8-2 3 1 8 12 25 10 18 14 20 13 13 15 10 13 6 22 5 26 4h20l7-2-2-5-2-8-8-6-4-6 6 3 7 7 14 5 9 6 5 4 2 1h16l35-6 20-6 15-6 27-14 24-15 12-9 13-11 14-14 12-17 6-12 7-21 4-16 4-32 1-14v-31l-4-16-7-13-11-12-7-8-5-4-8-15-9-26-8-15-9-10-10-9-10-5-13-4zm-517 13-5 5-2 5-3 19-2 24-2 1v2l7-1 3-4 3-9 3-15v-9l-2-8v-6l1-4zm-16 56-5 4v2l5-2 2-4zm-6 6m511 21v6l-2 4-1 11 1 26 1 1-1 13-3 14v16l3 5 4 2h9l10-2 8-5 7-7 5-8 1-10-4-9-7-8-15-11-4-5-4-14-4-11-1-1-1-7zm-226 26-6 4-2 4 11 4 8 4 1-3v-9l-4-4zm13 20m221 236-25 7-25 4-37 3-44 1-3 63-3 19-2-49-2-21-2-9-3-3-13-4-23-4-1 1v173l7 1 56 2h37l38-2 48-3 5-2v-81l-1-70-1-25-1-1z" fill="#4739B8"/>
<path transform="translate(1204,196)" d="m0 0h11l11 4 18 11 12 11 9 8 12 6 25 10 15 9 7 6 6 11 5 6v2l-6-2-6-3 6 5 11 6 10 6 13 9 14 14 6 10 6 20 2 31 1 23 1 49 4 17 1 2v25l2 26 1 3v10l-4 8-7 9-6 8-5 4-7 4-8 20-12 27-7 17-8 13-8 12-12 16-9 10-6 5-9 3-35 1-6 3-12 12-17 9-12 4-6 1h-8l-10-3-13-9-10-4-4-3-9 15-5 4h-11l-16-1-12-4-10-6-8-7-11-14-8-14-9-21-7-21-5-20-3-23v-28l4-57v-26l-2-9 1-12 3-5 2-5 6-6h10l26 6 20 4 16 8 4 3 1 8-2 11-3 10-5 10-9 9-9 7-2 5 1 7 7 2 8-1 8-6 8-11 5-9 5-10 8-29 5-31-2-22-3-12-4-8-7-6h-7l1 9 4 6 3 4 2 7 2 3-1 23 2 3-1 6-6 8h-4l-3-5 1-9 2-7-6-9-15-5-15-2-13-4-1-4 8-7 4-9 11-33 10-25 9-20 10-19 10-18 11-17 8-11 9-10 7-7 14-9 9-4 9-1 14 5 8 1-13-8-5-5-14 1-17 7-8 6-11 11-9 12-9 11-13 18-9 15-7 10-17 33-19 45-5 12-8 16-3 3-6-1-1-1v-12l8-21 9-24 10-24 14-30 16-28 10-14 9-12 12-14 9-9 12-9 22-13zm42 27m3 10 2 10 3 5 8 5h2l2 20 2 25v15l-1 6 5 6 6 3h2v-6l-2-4-2-25-1-28-2-10 6 4 10 9 22 16 4 30v10l3 3 2-5h2l-1 3 7 2 2-11 9 3 4 2 9 2 7 5 6 8 4 2 8-4-1-5-11-11-13-10-15-9-3-3h-2l-2-5-3-5-3-7-2-2-2-5-12-10-10-6-20-8-11-4-13-10zm-30 28-1 9 4-5-1-4zm-2 9m18 21-1 5v14l16 2-1-5-7-12-4-4zm17 18 2 3 2-1zm-19 6-2 11-5 73-4 37-6 35-8 37-8 28-14 47-4 20-9 16 1 2 7-9 8-16 5-3 4-1h19l14 4h2l-5 9-6 7-2 8 5-1 6-9 6-14 7-6 4-9 16-64 7-32 5-25 4-36 4-52 1-20v-16l-5-4-17-1-13-3-12-7h-2l-1-6zm66 23-2 3-3 21-5 59-5 41-6 29-8 38-7 30-6 28v9l5 4 10 3 9 1h10l4-5 6-15 6-18 9-28 6-24 3-15 4-38 3-44 2-68-3-3-3-6-4 1h-9l-9-1-1-2zm45 11-1 21-3 65-4 48-4 27-5 20-12 40-6 24-1 11 20 10 1 3-6 12 1 3 10-16 5-5 13-33 8-15 4-19 5-16 8-25 3-12 1-15v-104l-2-18-2-2-15-1-9-3zm-291 107 1 4h2l-2-4zm24 8-3 5-5 39-4 47v5l2 1v22l3 23 5 22 10 25 10 18 6 10 6 14 7 6 7 5 7 1-1-7-4-8-10-9-7-8-6-7-6-10-7-16-6-18-4-13-3-14-1-8v-20l3-16 3-14 3-31 5-33v-3l6 1 4 1 2 4 4 1h8l10-4 3-3-2-5-9-1-18 1-15-3zm318 39 1 2zm-1 2-6 16-4 6-5 12-2 5 1 3 5-4v-2l5-1 3-3-1-5-1-2v-6l4-8 2-6v-5zm-72 128m-64 25-5 3-9 11-10 11 2 1 6-3 11-12 7-7-1-4zm-85 15-5 5 2 4 9 5 10 8 12 9 7-1 8-6 3-4-5-2-4-3-4 2-3 1-16-8-6-5-3-5zm60 11m-95 10-3 3-4 10 3 1 8-6 2-3v-3z" fill="#483AB9"/>
<path transform="translate(402,231)" d="m0 0h3l7 11 9 11 10 13 13 18 12 19 14 25 10 23 11 28 6 17 4 4 10 7v2l-29 5-21 3-3 2v11l1 21-3 7-5-5-3-13-1-5-1-19-1-3 5-10 9-9 8-7-1-3-4-4-9 1-8 6-6 9-5 13-2 14 1 17 4 20 7 19 7 13 14 15 9 11 8 7 7 3-1-5-4-8-9-9-8-11-1-3-2-18 17 1 22-3 10-1 3 29 4 33 2 29v27l-2 23-5 33 7-15 4-26 1-12 1-56 2 4 1 7 6 7 3 12-1 9-2 5v7l-3 6-1 18v15l5 18 1 5-7 16-9 16-7 9-7 7-11 7-12 7-8 4-5 1h-10l-12-5-6-4-9-10v-4l8 1 13 6 9 1 8-2 6-1 2 4h2l-1-7 4-7-10 2-11 1h-19l-11-3-13-15-6-5-10-13-11-16-9-15-12-19-5-7 1-5 3-3 3-1h16l14 2h4l-3-15-8-26-15-52-8-37-5-30-3-25-1-18v-14l2-34v-9l-3-2 1-5-6-2 1-13 4-21 8-16 7-13 4-13 4-8 5-4 6-2zm-5 27-5 5-2 5-3 19-2 24-2 1v2l7-1 3-4 3-9 3-15v-9l-2-8v-6l1-4zm-16 56-5 4v2l5-2 2-4z" fill="#4739B8"/>
<path transform="translate(659,935)" d="m0 0h94l5 2 5 4 13 27 8 16 13 27 14 24 12 18h2v-19l-2-33-5-6-8-5-6-8-3-11-2-22v-12l4-2h103l1 1v12l-2 32-6 7-14 4-2 39-1 57v75l-4 3-9 1h-45l-8-2-8-11-12-20-14-23-10-16-8-13-11-18-12-16-4-2 3 42 1 18 3 4 12 6 5 6 3 9 2 21 1 10-1 2-14 3h-68l-23-1-5-3v-16l2-16 3-8 4-4 11-7 3-6 1-8 2-73-1-29-3-4-15-6-4-5-2-9-1-19v-16z" fill="#010002"/>
<path transform="translate(379,199)" d="m0 0h13l7 3 4 1 9 2 14 7 12 11 7 7 9 11 11 15 13 21 15 29 9 20 16 40 10 27 1 3 10-3 13-3 11-2 25-2 15-3h3l2-27 6-31 10-37 7-12 7-8 10-7 12-4 21-3 22-3 11-3 3-5 14-4 29-3 32-1 5-2 7-6 9-3 5-1h31l17 4 22 11 8-1 17-2h10l15 3 13 5 11 7 13 13 9 14 8 21 6 19 4 6 10 9 9 11 8 10 10 22 5 14 3 3 3 1v2l-5-1-4 19-1 13-4 3-1 4 6-4v7l-4 1-1 10-5 5-2 5h5v3l-5 3-5 7-2 1-1 4-2 1-2 5h-1l1-10 3-12 4-32 1-14v-31l-4-16-7-13-11-12-6-7-6-5-8-15-9-26-8-15-9-10-9-8-10-5-13-4h-11l-6 4-6 9-5 15-6 38-1 6v13l7 10 6 11 11 16 11 11 18 12 14 7 14 5v3l-10 6-9 6-5 7-3 9-2 16-1 3-7 1-26-1h-15l-14 4-9 5-13 11-7 8-8 9-2 1-14 1-26-1-11 2-5 3-5 12-4-1 1-7 5-4 1-5-2-7 1-8 8-9 5-10 1-9v-31l-2-19-6-110-2-18-4-11-4-5-7-3h-22l-17 3-12 3 2 21 10 74 5 26v5l-5-4-5-10-1-4-5-14-4-6-3-6 1-8-3-1-2-3 1-5h-2v-3h-3l-6-27-5-13-3-4v-2h-29l-12 4-4 3h-2l4 8 8 18 9 17 8 13 8 14 5 8 7 6h10l-2 5-8 16-9 4h-7l-3-1 2 4-1 4-4 1-1 2-1-3-5-2-13-6-3-1h-8l-33 6-25 3-26 3-20 3-8 5-11-1-5-10-11-30-13-30-12-25-12-22-14-20-11-13-7-8-9-10-20-20-3-6-5 8-10-5-17 2-14 8-24 15-26 14-10 8-12 13-7 11-6 11-6 7-2 1h-7l-4-1-8 7-11 11-15 20-6 5-1-6 3-12 5-8 14-15 15-10 15-14 12-13 7-9 7-7 13-9 17-9 26-17 16-10 17-8zm447 38-10 3-6 5-1 4 3 1-2 31v98l1 15 2 9 2 2h13l10 3 3 2-8-1-2 1h-10l-3 8 1 21v13l-3 12-4 9 1 4 7 3 8 2h17l5-5 8-9 7-12 4-8 1-3-4-4 7 1 4 2-4-5-6-4-4-8-1-5 2-6 2-39 5-44 4-29 6-34v-18l-6-8-12-6-5-1zm60 104v6l-2 4-1 11 1 26 1 1-1 13-3 14v16l3 5 4 2h9l10-2 8-5 7-7 5-8 1-10-4-9-7-8-15-11-4-5-4-14-4-11-1-1-1-7zm-226 26-6 4-2 4 11 4 8 4 1-3v-9l-4-4z" fill="#33248F"/>
<path transform="translate(929,935)" d="m0 0h198l5 1 1 4v71l-2 6-2 1-27-1h-9l-9-7-8-13-8-3-11-2-24-1-7 3-3 4v18l2 9 4 5 3 1h34l8 2 2 5v22l-3 6-4 3-37 1-9 2v22l1 12 1 2 3 1 39 1 7-2 8-16 3-4 44-1 3 2 1 5 2 55v14l-7 3-50 1h-97l-48-1-5-3v-31l2-10 3-3 15-6 4-2 2-15v-94l-2-8-4-4-9-5-7-6-3-9-1-14v-20z" fill="#010002"/>
<path transform="translate(1167,268)" d="m0 0 2 1 2 5 2-1 1-4 6 2v-2l4 1v2l4 2 3 2 1 7 3 1 4 16-1 17 1 3 3 1 4-2 1 7 4 1 2-6 5-3 4-2-1-4h-3l1-13 4-1 2 1-1 5 3 5 2 1-1-5 5-1v18l-1 4-5 73-4 37-6 35-8 37-8 28-14 47-3 10h-4-5v-2h-6v2l-5-1-6-3-3 1-5 9-4 4-4 6-3 2-1 3-10 4-4 4h-2l1 8-4 2-1 2-4-2-7-5v-2l-10 5-3 1-1-7v-9l-2-2-2-12v-23l1-6-3-3v-4h-2l-1-6 1-2-2-19v-3h-3v-19l5-36 2-8 3-1 7 3 2 3 4 1h8l10-4 2-4-1-3h-9l-18 1-15-3-4 1-2 9-4 33-3 33-2 7h-2l-2 9-3 2-6-3-1-5v-2l1-4-1-3-2-1v-24l1-16v-26l-2-9 1-12 3-5 2-5 6-6h10l26 6 20 4 16 8 4 3 1 8-2 11-3 10-5 10-9 9-9 7-2 5 1 7 7 2 8-1 8-6 8-11 5-9 5-10 8-29 5-31-2-22-3-12-4-8-7-6h-7l1 9 4 6 3 4 2 7 2 3-1 23 2 3-1 6-6 8h-4l-3-5 1-9 2-7-6-9-15-5-15-2-13-4-1-4 8-7 4-9 11-33 10-25 9-20 10-19 2-4 5-3h2l1-2h2l2-6 5-2 2 1 2-9zm-114 188 1 4h2l-2-4z" fill="#4638B8"/>
<path transform="translate(1213,935)" d="m0 0h87l9 2 11 6 14 12 7 7 9 14 3 12-1 19-4 6-5 3-9 2h-29l-10-6-15-15-8-3-5-1-26-1-9 3-3 4v8l4 6 5 4 19 4 24 3 22 4 19 7 17 12 9 9 5 8 3 8 1 11-1 33-2 9-6 8-14 15-12 11-9 4-10 2-15 1h-71l-17-3-8-6-24-24-5-9-2-11v-11l3-14 1-1h39l16 5 9 6 9 9 6 3 10 2 11-1 10-2 7-6 4-8-2-6-5-5-15-5-15-3-29-4-21-5-10-6-8-8-4-3v-2l-3-1v-2l-4-2-8-7-1-9v-44l3-9 6-9 8-8 14-11 7-6 8-4z" fill="#000002"/>
<path transform="translate(1442,934)" d="m0 0h40l31 1 16 3 10 4 12 9 11 11 9 14 3 10 1 8-1 1v12l-4 5-8 4-4 1-25 1-15-5-5-5-7-8-5-5-11-3-10-1h-14l-11 4-3 4-1 7 4 8 5 4 20 4 22 2 19 3 12 4 15 8 11 8 12 11 5 10 2 10v22l-1 13-5 16-13 16-10 8-14 8-9 3-14 2-16 1h-43l-20-2-10-3-10-6-12-12-7-6v-2l-3-1-4-6-3-13-2-25 3-5 1-1h10l3 1h21l14 3 10 5 15 11 11 4 6 1h16l9-3 6-7 1-2v-6l-6-7-8-4-26-5-30-5-20-6-15-9-6-5-9-11-4-8-2-15v-33l3-9 9-12 8-8 11-9 9-6 12-5z" fill="#000002"/>
<path transform="translate(418,935)" d="m0 0h216l1 2 1 54v29l-3 7-4 3-8 2h-11l-13-2-12-6-4-5-3-17-3-9-3-3-2-1h-10l-1 2-2 89 1 15 4 13 6 7 7 6 4 8 3 32-3 3-4 1h-112l-4-1v-13l3-25 3-7 14-8 3-5 1-6 1-37-1-68-2-5-3-2h-11l-5 3-2 6v19l-3 7-5 5-13 3-18 1-10-1-5-4-1-3-2-67v-21z" fill="#000002"/>
<path transform="translate(48,935)" d="m0 0h174l3 2 1 6v54l-2 15-6 7h-20l-13-2-6-7-7-11-8-6-8-2h-25l-8 3-5 5-3 8v9l2 9 10 4 15 2 20 2 7 3 3 5v14l-3 7-3 3-5 2-37 5-7 3-4 6 1 8 4 11 9 10 11 7 5 6 2 7 2 23v10l-4 2h-103l-13-1-4-1-1-5 3-19 5-13 11-19 4-16 1-14v-59l-1-15-5-12-12-16-2-5-2-17v-16l1-1z" fill="#000002"/>
<path transform="translate(1048,529)" d="m0 0h1v12l3 1 1 4v2l-1 8 7 2 2-3 2-7h2l1-2v9l-1 5 3 1v22l3 23 5 22 10 25 10 18 6 10 6 14 9 7 7 4 4 1-3-9-4-7-9-8-7-8-6-7-6-10-7-16-6-18-4-13-3-14-1-8v-20l3-16 3-14 1-7 1 3h3l2 13 1 10-1 4v3h2l1 5 3 2-1 12v17l2 12 2 2v13l1 2 4-3 8-2 8 7 3 2 1-3 4-1-1-8 5-2 2-4 9-2 1-4 5-5 3-5 4-4 5-8 5 2 8 3v-2h6l6 2h3l-1 10-9 16 4-4 5-8 4-10 7-5 4-1h19l16 5-1 4-6 8-4 6-2 6 5-2 5-8 6-14 7-6 3-3-1 8-3 2v3l-1 6-2 7-4 7-5 8-3 1-1 5-7 10-3 5-4 7-3 1-6 10-5 5-7 8-2 5-8-6-3-4v-2l-7 2-2 5 10 6 10 8 12 9 7-1 8-6 2-2-5-3-5-2-5 3-5-2 6-7 3-3 8 2v-4l5-5 6-5 6-2 8-10 3-3h2l1-4 3-6 2-1 2-4h2l2-4h2l1-4 5-5 2-3h2l1-4 5-6 3-5 4-3 9-1 4-4 2 6v2l3-2h4l-1 4-4 5-3-2v-2l-4 4-2 6 1 2 1-4 3-2h3v11l-4 2-1-3h-4l2 6-2 3-2 8-1 9h-2v4h3l1-2 3 2 1-5 4-11 6-8 2-4 3-3 3-7 4-4 2-5 10 4 4 4-6 13v2l9-15 5-5 5-13 4-2 2-3h7l2 4-9 20-6 14-10 15-10 14-10 13-9 9-11 4-35 1-6 3-12 12-17 9-12 4-6 1h-8l-10-3-13-9-10-4-4-3-9 15-5 4h-11l-16-1-12-4-10-6-8-7-11-14-8-14-9-21-7-21-5-20-3-23v-28zm274 104m-64 25-5 3-9 11-10 11 2 1 6-3 11-12 7-7-1-4zm-25 26m-95 10-3 3-4 10 3 1 8-6 2-3v-3z" fill="#7A73E8"/>
<path transform="translate(325,250)" d="m0 0h1l-1 26-4 38-3 14-3 9v45l3 36 5 37 5 29 10 43 13 54 6 15 5 4 8 17 13 20 11 16 9 11 11 12 7 8 15 14 4 5v3l-8-1-18-5-25-11-14-7-11-9-9-9-8-7-6-8-16-27-7-9-2-1v-2l-5-2 4-2 21-7 4-2v-8l-11-52-11-45-7-39-5-43-3-55-2-11-2-3-12-2h-16l-4 5-5 4v43l3 40 5 42 5 29 6 25 9 32 10 31 5 14 7 5 2 10 8 16 10 18 9 13 8 10 12 12 17 12 8 3 17 5 9 4-2 4-3 3-5 1-17-6-14-7-17-10-13-9-17-10-8-7-9-12-7-6-4-5v-2h-2l-5-14-3-5h-15l7 13 6 7 4 7 1 5 6 8 6 4 13 4 8 6v2l-9 3-6-1-12-5-9-7-8-9-12-20-8-13-5-12-11-23-15-29-6-8-10-11-5-5-4-5-5-11-1-10 2-10 4-4 3 1 2 5v10l4 19 5 8 2 1-3-9-4-15-4-33v-11l-2-18v-25l-2-31v-20l2-19 3-15 10-8 8-5 8-6 8-9 10-5h3l1-2v2l5 1 8 6v5l2-1 2-5 3-1 1-3 5-3 4-15 3-14 7-11 8-8 13-8 6-9zm-76 99-29 4-2 5-3 20v49l2 43 3 28 5 26 7 25 8 23 10 24 7 16 5 5 7-1 16-6 4-2 1-3-2-16-6-23-11-36-5-22-7-40-4-34-3-44v-35l1-6z" fill="#483AB9"/>
<path transform="translate(279,935)" d="m0 0h38l57 1 2 2v20l-1 19-2 7-18 6-2 7-1 33v48l2 19 3 9 14 14 4 9 3 27-1 7-3 2-12 1-94-1-8-1-2-3v-9l2-18 4-11 7-7 5-4 3-5 2-8 1-10v-62l-1-30-3-7-12-6-3-4-3-12-2-18v-14z" fill="#000002"/>
<path transform="translate(379,199)" d="m0 0h13l7 3 4 1 9 2 14 7 12 11 7 7 9 11 11 15 13 21 15 29 9 20 16 40 10 27 1 3 10-3 13-3 11-2 25-2 15-3h3l2-27 6-31 10-37 7-12 7-8 5-4 2 1-1 2 4-2h11l6 2v2h2v2h15v1l-20 1-12 4-4 3h-2l4 8 8 18 9 17 8 13 8 14 5 8 7 6h10l-2 5-8 16-9 4h-7l-3-1 2 4-1 4-4 1-1 2-1-3-5-2-13-6-3-1h-8l-33 6-25 3-26 3-20 3-8 5-11-1-5-10-11-30-13-30-12-25-12-22-14-20-11-13-7-8-9-10-20-20-3-6-5 8-10-5-17 2-14 8-24 15-26 14-10 8-12 13-7 11-6 11-6 7-2 1h-7l-4-1-8 7-11 11-15 20-6 5-1-6 3-12 5-8 14-15 15-10 15-14 12-13 7-9 7-7 13-9 17-9 26-17 16-10 17-8zm281 168-6 4-2 4 11 4 8 4 1-3v-9l-4-4z" fill="#4739B9"/>
<path transform="translate(517,514)" d="m0 0h1l3 31 1 17v27l-2 23-5 33 7-15 4-26 1-12 1-56 2 4 1 7 6 7 3 12-1 9-2 5v7l-3 6-1 18v15l5 18 1 5-7 16-9 16-7 9-7 7-11 7-12 7-8 4-5 1h-10l-12-5-6-4-9-10v-4l8 1 13 6 9 1 8-2 6-1 2 4h2l-1-7 4-7-10 2-11 1h-19l-11-3-13-15-6-5-10-13-11-16-9-15-12-19-5-7 1-5 3-3 3-1h16l14 2h4l-1-9 12 5 7 5 9 5 7 1 5 4 6 5 7 3 8 7 7 3 1 2 5 3 4 3 7 2 5-5 2-5 2-12-1-2v-9l4-5 1-2h2v-34l1-5 1-12 2-4-1-13 1-2h3z" fill="#7469DA"/>
<path transform="translate(1245,587)" d="m0 0 1 2-2 7-2 1v3l-1 6-2 7-4 7-5 8-3 1-1 5-7 10-3 5-4 7-3 1-6 10-5 5-7 8-2 5-8-6-3-4v-2l-7 2-2 5 10 6 10 8 12 9 7-1 8-6 2-2-5-3-5-2-5 3-5-2 6-7 3-3 8 2v-4l5-5 6-5 6-2 8-10 3-3h2l1-4 3-6 2-1 2-4h2l2-4h2l1-4 5-5 2-3h2l1-4 5-6 3-5 4-3 9-1 4-4 2 6v2l3-2h4l-1 4-4 5-3-2v-2l-4 4-2 6 1 2 1-4 3-2h3v11l-4 2-1-3h-4l2 6-2 3-2 8-1 9h-2v4h3l1-2 3 2 1-5 4-11 6-8 2-4 3-3 3-7 4-4 2-5 10 4 4 4-6 13v2l9-15 5-5 5-13 4-2 2-3h7l2 4-9 20-6 14-10 15-10 14-10 13-9 9-11 4-35 1-6 3-12 12-17 9-12 4-6 1h-8l-10-3-13-9-10-4-4-3-9 15-5 4h-11l-2-2 4-2 1-3 5-5 2-3-1-6-7-1v-2l5-1 3-5 5-2 3 1 8-7 2-4h5l2-4 3-3 2-3h3v-2l2-2 3-6 9-12h2l1-3h2l1-2 2 1 3-9 5-1v-3l-3-1 1-3h4v2l4-3 2 1 1-3 3-1v2l5-2 5-8 6-14 7-6zm77 46m-64 25-5 3-9 11-10 11 2 1 6-3 11-12 7-7-1-4z" fill="#7368DA"/>
<path transform="translate(1281,238)" d="m0 0 9 3 14 6 16 10 6 7 6 11 3 3v2l-6-2-6-3 6 5 11 6 10 6 13 9 14 14 6 10 6 20 2 31 1 23 1 49 4 17 1 2v25l2 26 1 3v10l-4 8-7 9-6 8-5 4-7 4-8 20-5 12-3-1h-7l-3 4h-2l1-5 8-19 7-14 3-16 5-16 8-25 3-12 1-15v-104l-2-18-1-1-15-1-9-3-9-1v21l-3 65-4 48-4 27-5 20-12 40-6 24-1 11 7 4-2 6h-2l-2 4-4 9-2 1-9 15-4 12h-4-3v-4h2v-9l3-9 1-4-1-4h4l2 2 3-1-1-9 1-2-6 2v5l-3-3 3-7 2-3h2l3 3 4-5 1-3-7 2-2-5 1-7 10-29 9-28 6-24 3-15 4-38 3-44 2-68-3-3-3-10 1-1 1-19 3-1 11 5 9 2 8 6 5 7 4 2 5-3h3l-3-6-9-9-13-10-15-9-5-4-6-10-3-7-2-2-2-5-14-11-8-5-3-5v-6l-5-2h-5l-3-3zm114 265 1 2zm-1 2-6 16-4 6-5 12-2 5 1 3 5-4v-2l5-1 3-3-1-5-1-2v-6l4-8 2-6v-5z" fill="#483AB9"/>
<path transform="translate(253,398)" d="m0 0 4 1 2 4 3 12-2 8 2 4-2 2v3l4-2 1 1 5 42 5 29 6 25 9 32 10 31 5 14 7 5 2 10 8 16 10 18 9 13 8 10 12 12 17 12 8 3 17 5 9 4-2 4-3 3-5 1-17-6-14-7-17-10-13-9-17-10-8-7-9-12-7-6-4-5v-2h-2l-5-14-3-5h-15l7 13 6 7 4 7 1 5 6 8 6 4 13 4 8 6v2l-9 3-6-1-12-5-9-7-8-9-12-20-8-13-5-12-11-23-15-29-6-8-10-11-5-5-4-5-5-11-1-10 2-10 4-4 3 1 2 5v10l4 19 5 8 2 1-3-9-4-15-4-33v-11l-2-18v-45l2-1 1 7h4l4 13 3 47 4 28 6 25 6 20 6 17 10 24 7 16 4 4 7-1 16-6 4-1-1-14-5-21-13-43-5-22-7-40-4-34-1-12z" fill="#493BBA"/>
<path transform="translate(379,199)" d="m0 0h13l7 3 4 1 9 2 14 7 12 11 7 7 9 11 11 15 13 21 15 29 9 20 16 40 10 27 1 3 10-3 5 1 3 3v3l-11 2-8 5-11-1-5-10-11-30-13-30-12-25-12-22-14-20-11-13-7-8-9-10-20-20-3-6-5 8-10-5-17 2-14 8-24 15-26 14-10 8-12 13-7 11-6 11-6 7-2 1h-7l-4-1-8 7-11 11-15 20-6 5-1-6 3-12 5-8 14-15 15-10 15-14 12-13 7-9 7-7 13-9 17-9 26-17 16-10 17-8z" fill="#493ABA"/>
<path transform="translate(528,536)" d="m0 0 2 4 1 7 6 7 3 12-1 9-2 5v7l-3 6-1 18v15l5 18 1 5-7 16-9 16-7 9-7 7-11 7-12 7-8 4-5 1h-10l-12-5-6-4-9-10v-4l8 1 13 6 9 1 8-2 6-1 2 4h2l-1-7 4-7-10 2-11 1h-19v-1l16-1-11-14-4-6-2-1v-5h-2l-5-8-2-1v-3h-2l-10-14-9-15-1-5-4-8-1-5h10l1-1h5l4 8 6 8v2l7 2h6l7 7 2 4 11 6 2 2 6 5v3l5 2 7 4 9-1 3-7 5-6 4-1 1-5 2-3v-6l4-8h1l-1 13-2 13 7-15 4-26 1-12z" fill="#7A73E8"/>
<path transform="translate(1048,529)" d="m0 0h1v12l3 1 1 4v2l-1 8 7 2 2-3 2-7h2l1-2v9l-1 5 3 1v22l3 23 5 22 10 25 10 18 6 10 6 14 9 7 7 4 4 1-3-9-1-5 3-1 5 2v-2h2l1-3 1-11 7-6 5-2 2-5 7-3 6-9 4-4 4-1 2-9 3-3 13-26h2l2-16 1-2 4-1h19l16 5-1 4-6 8-4 6-1 4-4 2-1 2-6 2v-2l-4 1v2l4 1-3 5h-4l-2 6-1 2-5 2-6 7-6 8-3 7h-2v2l-3 1-3 5-4 4h-5l-2 5-8 7-4-1-5 3-2 4h-5l-2 6-3 8 5-2 5-4 1-2h2l1-2-1 7-5 6-7 6h-14l-12-4-10-6-8-7-11-14-8-14-9-21-7-21-5-20-3-23v-28z" fill="#7267D9"/>
<path transform="translate(325,250)" d="m0 0h1l-1 26-4 38-3 14-3 9-1 35h-1l-1-26-2-2-3 2-1 7-1 20h-1l-2-26-3-6-12-2h-16l-4 5-5 4v43l2 29v10l-4 2-1-4 3-1-2-1-1-4 2-9-3-10-1-4-3 1-1 9h-1l-1-19v-35l2-6-19 3-14 2-3 16-1 8v57l-2-3-2-6v-4h-4l-2-5-2 3-1-15v-20l2-19 3-15 10-8 8-5 8-6 8-9 10-5h3l1-2v2l5 1 8 6v5l2-1 2-5 3-1 1-3 5-3 4-15 3-14 7-11 8-8 13-8 6-9z" fill="#4A3BBA"/>
<path transform="translate(1284,364)" d="m0 0h3l1 10 4 7v18l-5 49-5 30-8 36-7 33-7 29-2 11v9l6 4 8 2 9 1 1 2-5 4-4 7-3 3-1 3-8 8-2 4-6 5-2 4h-2l-1 5-3 5-7 6-7 9-7 2-7 8h-2v4l-8-1-7 8-6-1-5-3 1-5 4-5 5-5 2-3h2l2-6 4-5h3l2-6 3-3 5-9 4-6 1-3 5-5 4-7 2-4 3-9 1-5v-3l2-1 4-18 15-60 7-32 5-25 4-36 4-52z" fill="#4638B8"/>
<path transform="translate(1211,218)" d="m0 0h5v2l-7 2-1 4 4 1 2-2 4 5v5l2 3 5 2 5 6 1 4v1l2 1v13l4 1 1 2 5 1 2 7-1 5-3 1-1 6-2 4-3-1v24h-2v-11l-4 1v5l-3-1-1-4-2-1 2-5h-6v9l-1 4h3l1 4-2 3-4 1-3 2-2 6-5-2v-5h-3l-2 1-3-2-1-3 1-20-2-3-1-10-4-1v-7l-4-2-4-4-3-1v2l-6-2-1 5-3 1-2-6-2 3-1 4-1 2-6 1-3 6h-2l-1 3-6 2 2-5 10-17 10-15 9-11 11-11 14-9zm8 43-1 9 4-5-1-4z" fill="#7367DA"/>
<path transform="translate(1204,196)" d="m0 0h11v2l-7 2 3 6-1 2-4-1-2-2 1-4-2-1-2 5-3 5-1 6-10 6-13 13-9 12-9 11-13 18-9 15-7 10-17 33-19 45-5 12-8 16-3 3-6-1-1-1v-12l8-21 9-24 10-24 14-30 16-28 10-14 9-12 12-14 9-9 12-9 22-13z" fill="#483AB9"/>
<path transform="translate(1384,330)" d="m0 0h1l4 15 2 31 1 23 1 49 4 17 1 2v25l2 26 1 3v10l-4 8-7 9-6 8-5 4-7 4-8 20-5 12-3-1h-7l-3 4h-2l1-5 8-19 7-14 3-16 5-16 8-25 3-12 1-15v-113h2v-3l2-1v-3h2l-1-5 1-2h-2zm11 173 1 2zm-1 2-6 16-4 6-5 12-2 5 1 3 5-4v-2l5-1 3-3-1-5-1-2v-6l4-8 2-6v-5z" fill="#493BB9"/>
<path transform="translate(1273,255)" d="m0 0 5 2 11 10 11 8 12 9 4 30v10l2 2 2-4h2l1 3 5 2v-5h1v13 4l-1 2-4 1h-9l-9-2-5-1h-2l-2 7-3 29-1 12h-1l-2-9-3-4v-10h-3v-28l-6-4 1-3v-7l-2-4-2-25-1-28z" fill="#4839B9"/>
<path transform="translate(369,218)" d="m0 0h7l9 6h6v3l-4 2-3 7-6 11-10 17-6 14-7 21-3 12v9l4 2-1 5-11 4-17 1-1-3 3-12 3-29 2-21 4-13 6-11 9-10 10-12z" fill="#493BBA"/>
<path transform="translate(588,461)" d="m0 0 3 1 1 2-13 3-18 6-15 4v19l3 42 1 20v12l-3 39-4 26-3 11h-2l-5-16-1-4v-15l1-18 3-6v-7l3-10-1-9-3-8-5-6-3-17-4-48-1-8-6-5 2-3 9-2h7l5 5 36-6z" fill="#4A3CBA"/>
<path transform="translate(706,1231)" d="m0 0h14l9 2 5 5 4 8 4 20 3 10v14l-6 12-7 6-7 3-7 1h-17l-11-3-9-5-8-9-4-9-2-15 2-15 5-10 5-6 10-6 8-2zm4 13-11 2-8 6-4 6-2 8v16l4 8 6 5 10 2 13-2 6-3 6-7 2-5 1-8v-13h2l-1-7-4-5-6-2z" fill="#04030A"/>
<path transform="translate(379,199)" d="m0 0h13l7 3 3 2v11l-2-3-5 8-10-5-17 2-14 8-24 15-26 14-10 8-12 13-7 11-6 11-6 7-2 1h-7l-4-1-8 7-11 11-15 20-6 5-1-6 3-12 5-8 14-15 15-10 15-14 12-13 7-9 7-7 13-9 17-9 26-17 16-10 17-8z" fill="#4B3DBB"/>
<path transform="translate(810,379)" d="m0 0h1l1 15 2 9 1 1h13l10 3 4 4-9-1-2 1h-10l-2 10 1 18v13l-3 12-4 9v4l-2 1-4 12-15 2-8 4-5 12-4-1 1-7 5-4 1-5-2-7 1-8 8-9 5-10 1-9v-31l-2-19v-14l1-1h9l7 1z" fill="#33248F"/>
<path transform="translate(517,514)" d="m0 0h1l3 31v32l-4 14-1 15-2 7-2 13-3 5h-2v3l-2 2-2 1 1 3-7 8-1 3-11-1-5-5-7-4-4-5-6-3-4-4v-4l-5-2-5-4-9-5-3-3v-2l-5-1-5-8-3-1-1-2-10-2-2-1-1-12 12 5 7 5 9 5 7 1 5 4 6 5 7 3 8 7 7 3 1 2 5 3 4 3 7 2 5-5 2-5 2-12-1-2v-9l4-5 1-2h2v-34l1-5 1-12 2-4-1-13 1-2h3z" fill="#6455D8"/>
<path transform="translate(832,1235)" d="m0 0h15l10 3 6 9 5 10 10 9 12 8 5 6 1 3v11l-3 7-11-2-8-7-8-9-7-10-1-4-2 1-2 10v7l3 13-1 7-5 2h-13l-4-4v-11l2-12v-30l-4-15z" fill="#020206"/>
<path transform="translate(1079,532)" d="m0 0 1 3h3l2 13 1 10-1 4v3h2l1 5 3 2-1 12v17l2 12 2 2v13l1 2 4-3 8-2 8 7 3 2 1-3 4-1-1-8 5-2 2-4 9-2 1-4 5-5 3-5 4-4 5-8 5 2 8 3v-2h6l6 2h3l-1 7-5 1-2 2-2-1v2l-5 2v2l-4 3h-2l-2 4-5 6h-7l2-1-1-4-6 1-2 4-5 3-1 2h-2l-2 5-1 3-5 2-2 3h-2v2l-4 4-3 5-3 4h-5l-2-4-3-1-2-4-6-3-1-4-6-1v-5l-3-3-1-9v-2h2v-10h-2l-2-7 1-2 1-15 1-2h-6l-1-8-2 1-2 4v-18l5-22z" fill="#6455D8"/>
<path transform="translate(1048,529)" d="m0 0h1v12l3 1 1 4v2l-1 8 7 2 2-3 2-7h2l1-2v9l-1 5 3 1v22l1 10v10l-1 5 2 13-1 10v11l-2 6h2l2 6 4 1 6 7v4h2l1 2v8l-1 3h5l4-2-1 6-3 8-3-3-4-2-3-5-4-2-10-21-9-26-6-23-3-23v-28z" fill="#6455D7"/>
<path transform="translate(206,415)" d="m0 0 1 4 1 3h4l4 13 3 47 4 28 6 25 6 20 4 12-1 2-2-1h-8l-7-9-10-11-5-5-4-5-5-11-1-10 2-10 4-4 3 1 2 5v10l4 19 5 8 2 1-3-9-4-15-4-33v-11l-2-18v-45z" fill="#362793"/>
<path transform="translate(1245,587)" d="m0 0 1 2-2 7-2 1v3l-1 6-2 7-4 7-5 8-3 1-1 5-7 10-3 5-4 7-3 1-6 10-5 5-7 8-2 5-8-6-3-4v-2l-7 2-2 5 10 6-3 3h-6l-2 2-9-2-1 4-3 3h-2v2l-4 2-2 6-3 8-1 1 3 2h-11l-2-2 4-2 1-3 5-5 2-3-1-6-7-1v-2l5-1 3-5 5-2 3 1 8-7 2-4h5l2-4 3-3 2-3h3v-2l2-2 3-6 9-12h2l1-3h2l1-2 2 1 3-9 5-1v-3l-3-1 1-3h4v2l4-3 2 1 1-3 3-1v2l5-2 5-8 6-14 7-6z" fill="#8B79DB"/>
<path transform="translate(752,1231)" d="m0 0h8l8 3 9 10 8 15 8 7 3-10 6-12 4-5 8-4h15v2l-6 4h-2l-2 4-9 16-6 13-4 21-2 11-5 4-5 1-5-4-2-4-2-18-6-12-12-20-11-17-1-4z" fill="#030207"/>
<path transform="translate(1072,569)" d="m0 0h1l1 6 3-1 1 8 3-1 3 1-1 19h-2l2 4v3h2l1 8-1 2h-2l1 7 2 5 2 4-1 3 6 1 2 4 6 3 1 4 4 1 1 3 5 1 2-4 6-9h2v-2h2l2-4 5-1 1-5 2-3h2l2-4 5-3 1-2 7-2 1 3-1 2h5l7-9 4-3h2v-2l5-2v-2h2l2-2h5l-1 5-8 14 4-4 4-6 1 4-1 5-3 4-8 17-2 5-5 3-6 11-3 5-9 1v2l-4 1-1 2-1-5 1-1 2-9h2v-2l5-5 1-4 2-2 2-5 2-1 2-4 2-2 2-5h4l2-4-1-2 1-1-5 1-6 4-6 8-5-2v3l-4-1-3 1v3l-5 3 2 2-3 5-4 1-1-5-2 2v2l-7 6-4 1v2h-2v2l-4 2-3 1-6 11-5-5-9-19-7-21-4-13-3-14-1-8z" fill="#7469DA"/>
<path transform="translate(1284,364)" d="m0 0h3l1 10 4 7v18l-5 49-5 30-8 36-7 33-7 29-2 11h-2l-1-9 3-9v-3l-6 1 1-10 10-40 7-32 5-25 4-36 4-52z" fill="#30247A"/>
<path transform="translate(377,589)" d="m0 0h16l8 1 2 3 1 7 3 5 5 15 15 25 4 7 5 4 6 10 4 4 1 8 1 2h-2l-1 2-6-5 1-3-4-2-1-4-5-2-5-5-1-4-6-2-3-6-5-4-4-5-4-2v-2l-7 1-8-13-12-19-5-7 1-5 3-3z" fill="#4739B8"/>
<path transform="translate(310,343)" d="m0 0 3 3 1 26 4 46 5 37 5 29 10 43v8l-4-4-4-6-3-9-3-1-5-18-8-44-5-43-1-19v-38l1-8z" fill="#31267A"/>
<path transform="translate(789,293)" d="m0 0 9 1 4 2 5 1 2 1 1 64v22h-17l-1-2-4-78v-10z" fill="#2C2172"/>
<path transform="translate(1198,591)" d="m0 0h19l7 2v2l-3 3 1 5-9 6-5 8-5 3-3 10h-2v2l-7 3-3 8-12 16-9 10-8 7-4 2 1-4-7 5-1 2h-2l-1 5-5 6-4-1 2-6h3l-1-3 4-1v-2l4-4 4-8 5-5 6-9 4-4 4-1 2-9 3-3 13-26h2l2-16 1-2z" fill="#4638B8"/>
<path transform="translate(917,1232)" d="m0 0 6 1 4 3 2 48v17l-2 6-4 2h-11l-2-3v-17l-4-13-6-11v-13l2-5h2l2-4 4-6 5-4z" fill="#020206"/>
<path transform="translate(253,398)" d="m0 0 4 1 2 4 3 12-2 8 2 4-2 2v3l4-2 1 1 5 42 5 29 6 25 9 32 1 8h-2l-1-2-8-2-10-33-5-22-7-40-4-34-1-12z" fill="#32267B"/>
<path transform="translate(1281,238)" d="m0 0 9 3 14 6 16 10 6 7 6 11 3 3v2l-6-2-6-3 6 5 11 6 10 6 13 9 14 14 6 10 1 2 1 18-1 5h2v7l-1 5-3-1v3h-2l-2-9-2-2-1-9-2-2 1-4 5-1-4-8-10-10-13-10-15-9-5-4-6-10-3-7-2-2-2-5-14-11-8-5-3-5v-6l-5-2h-5l-3-3z" fill="#4A3BB9"/>
<path transform="translate(903,744)" d="m0 0h1l2 7 6 3h2v57l-9 2h-16l-13 1-13-2h-31l-4-1h-19l-21-1-11-1h-7l-3-2 44-1 38-2 48-3 6-1z" fill="#31228C"/>
<path transform="translate(1294,599)" d="m0 0 2 1 1 7 3-2h4l-1 4-4 5-3-2v-2l-4 4-2 6 1 2 1-4 3-2h3v11l-4 2-1-3h-4l2 6-2 3-2 8-1 9h-2v4h3l1-2 3 3-5 1h-4v-3l-5-1v2l-3 1-2 5-4-1v-3l-3 1 1-5 3-6 1-5h2l3-9 3-5-6 1-9 6-9 9-2 3h-2l-1 4-5 5h-2l-2 4h-2l-2 5-4 5-4 1-2 4-1 3h-5l-4 5-2 2-6 1-3-2-2 4-5 1 6-7 3-3 8 2v-4l5-5 6-5 6-2 8-10 3-3h2l1-4 3-6 2-1 2-4h2l2-4h2l1-4 5-5 2-3h2l1-4 5-6 3-5 4-3 9-1z" fill="#6455D7"/>
<path transform="translate(528,536)" d="m0 0 2 4 1 7 6 7 3 12-1 9-2 5v7l-3 6-1 18v15l5 18 1 5-7 16-9 16-4 3h-4v2h-5l-2-6v-8l4-8 7-13 3-10 4-2v-4h2l-1-7 1-5v-5l-2-1 2-2 2-20 1-5v-15l-2-2z" fill="#6455D8"/>
<path transform="translate(1274,628)" d="m0 0 5 1-7 14h-2l-1 8-8 11-4 7h-2l-1 6-4 4-3 4h-5l-12 12-7 2h-4l-1-3-5-3-5-2-5 3-2-2 4-5 6 1 4-2 5-6 5 1 1-4 9-9 3-5 7-6 4-4 1-3 9-9 8-7zm-16 30-5 3-9 11-10 11 2 1 6-3 11-12 7-7-1-4z" fill="#8C7BDB"/>
<path transform="translate(1322,541)" d="m0 0h2l-3 12-6 22-5 19-1 11 7 4-2 6h-2l-2 4-4 9-2 1-9 15-4 12h-4-3v-4h2v-9l3-9 1-4-1-4h4l2 2 3-1-1-9 1-2-6 2v5l-3-3 3-7 2-3h2l3 3 4-5 1-3-7 2-2-5 1-7 10-29 3-9 3 3 3-2 2-9z" fill="#483AB9"/>
<path transform="translate(304,242)" d="m0 0h5l-3 2-3 3-3 5-1-3-4 2-3 3v2l-8 7-3 5-4 1 1 3 2 2h-2l-1 2-1 3-5 8-6 3-4 1h-3v3l7 2-1 4-3 2 2 2-2 1h-7l-4-1-8 7-11 11-15 20-6 5-1-6 3-12 5-8 14-15 15-10 15-14 12-13 7-9 7-7 13-9z" fill="#695BD8"/>
<path transform="translate(1331,429)" d="m0 0 4 5 1 8-1 9-2 4 4 1 1 1v17l-4 31-6 25-4 11h-2l-2 5-3 6-2 7-4 2-1-1 1-9 8-28 5-24 4-38 2-28z" fill="#362793"/>
<path transform="translate(417,628)" d="m0 0 4 3 8 14v2l4 2 8 11 2 4 3 2v2l3 1 4 6 11 14v1h-22l-7-3-12-14-6-5-10-13-11-16v-2l6-1v2l5 2 6 7 3 2 2 5 6 3 3 5v2l4 2 2-1v2l3 1 2 5 2 1 2 4 3 3 2-2-1-1v-8l-3-1-7-11v-2l-4-2-5-6-6-12-4-6z" fill="#6556D8"/>
<path transform="translate(1306,642)" d="m0 0 3 1v2l5 1-2 8-4 5-2 4 4 3h2l2-4h2v-6l2-7 1-1h5l-3 9 6-2-4 6-10 13-9 9-11 4h-12l2-1-1-4v-11l1-3h2l2-4 4-3 3 1 4-12 3-3z" fill="#8C7BDB"/>
<path transform="translate(1177,687)" d="m0 0 4 1 20 15 7-1 5-2-1 8h-3l-1 5-2 1-1-2-7 1-1 3-7-1-9-5-7-5-10-4-4-3-9 15-3 3h-6l2-3 2-7 3-7 4-1v-2l5-4 1-3h5l4 1 2-2h6z" fill="#756ADA"/>
<path transform="translate(1210,232)" d="m0 0h2l2 6 1 9 9 2 2 4 2 1 1 3v13l-2 1v6l3 1-1 8h-3l-1-2v-7l-2-3-1 3-7 4h-2v8l-3-1 1 13-2 5-3-1-2-9-3-7v-5l2-6-2-1 3-7 2-1 2 1v-2l5-3h4l1-7h-4l-1-3-7-1-2-4v-3h-3l1-4 2-2 1-4 2-3h3zm9 29-1 9 4-5-1-4z" fill="#8C7ADB"/>
<path transform="translate(992,523)" d="m0 0h3l2 3v6h-4l1 5h6v4l-1 2-6 1v2l-5 2 1 3-5 6v2l-3 1-1 4-6 3-7 3-3-3-4 1-5 6-4-1v4l-5 4h-3v2l-4-1 1-4 4-1v-2l4-4h2v-2h2v-2l5-2 1-5 4-1 2-3h4l-1-4-2-1 7-8 8-7 11-11z" fill="#30228D"/>
<path transform="translate(1165,260)" d="m0 0 2 4h4l1-2 8-1 5 6 4 2 2 5 8 12 4 20 1 3h4l4 5h4v-7l2-14 1-2 3 1v3l5 2 1 1 5 1v5l-4 1v5l-3-1-1-4-2-1 2-5h-6v9l-1 4h3l1 4-2 3-4 1-3 2-2 6-5-2v-5h-3l-2 1-3-2-1-3 1-20-2-3-1-10-4-1v-7l-4-2-4-4-3-1v2l-6-2-1 5-3 1-2-6-2 3-1 4-1 2-6 1-3 6h-2l-1 3-6 2 2-5 10-17 4-6z" fill="#6556D8"/>
<path transform="translate(1069,599)" d="m0 0h1l3 17 4 15 10 24 9 16 6 10 2 7-11-1-4 3 1-7 2-6-4 3-5-1v-13h-2l-2-5-5-6-3-1-2-6h-2v-5l1-1v-16l1-5-1-10-1-7z" fill="#7C74E7"/>
<path transform="translate(1284,364)" d="m0 0h3l1 10 4 7v18l-5 49-2 14-2-1-2-9-3-1v-16l5-63z" fill="#2C2170"/>
<path transform="translate(271,486)" d="m0 0h1l6 30 11 40 2 6v5h-2l-1-2-8-2-10-33-5-22-2-13h2l-1-5 2-1 2 1 1-2z" fill="#362793"/>
<path transform="translate(1075,679)" d="m0 0 4 2 3 5 5 3 4-1 4-2 10 2 4 8 12 9 13 2 8-6 1-2h2l1-2-1 7-5 6-7 6h-14l-12-4-10-6-8-7-11-14z" fill="#756ADB"/>
<path transform="translate(454,496)" d="m0 0 5 5 11 12 7 8 5 4 7 3-1-5-4-8-9-9-4-5v-2l5 1 2 1v2l4 2 7 6 5 6 2 9-3 6-8 4-6 1-8-7-7-3-4-4-2-7-3-4v-3h-2l-1-5z" fill="#6657D8"/>
<path transform="translate(1182,609)" d="m0 0 1 4-1 5-3 4-8 17-2 5-5 3-6 11-3 5-9 1v2l-4 1-1 2-1-5 1-1 2-9h2v-2l5-5 1-4 2-2 2-5 2-1 2-4 2-2 2-5h4l2-4-1-2h2l2-4 5-2-2 5v2z" fill="#8B79DB"/>
<path transform="translate(503,691)" d="m0 0 5 1-2 7-25 15-8 2h-10l-12-5-6-4-9-10v-4l8 1 13 6 9 1h9v2h9l4 1 7-5h4l1-3h2l-1-3z" fill="#6758D8"/>
<path transform="translate(1215,197)" d="m0 0 7 1 16 9 12 9 8 8 3 5 5 5v3h-3v-2l-6-1-4-6-3-2-9-1 1-2-13-8-5-5-14 1-10 4-3-1 1-5 5-9 3 1-1 4 5 3-1-4-2-2 3-3z" fill="#4E40BD"/>
<path transform="translate(1347,292)" d="m0 0 5 1 12 9 13 13 6 10 1 2 1 18-1 5h2v7l-1 5-3-1v3h-2l-2-9-2-2-1-9-2-2 1-4 5-1-4-8-10-10-6-5 1-4 1-1-4-2-2-3-5-5-3-5z" fill="#4132A2"/>
<path transform="translate(1165,224)" d="m0 0 1 3-4 5h-3l-1 5h-2l-2 7-4 2v-2l-3 1 1 9-6 9-10 14-9 9 1 2-2 3-5 2-4 7h-4l1-5 14-24 7-11 10-13 8-10 10-11z" fill="#352694"/>
<path transform="translate(744,443)" d="m0 0h4l1 3 2 18 4 10 8 11-1 2-7-7-22-13-11-4-1-5 2-5 13-5h3l1-3z" fill="#32238F"/>
<path transform="translate(1191,213)" d="m0 0h3l1 4-9 6-12 12-9 12-9 11-13 18-9 15-7 10-2 4-8 1 5-9h2l2-4 3-5 1-4h2l2-5 5-6 3-5 3-1 2-5 4-8 4-2h4l3-10v-3-3l3-5 6-1v-2l-2-1 7-3 9-7h2l1-3z" fill="#776ADA"/>
<path transform="translate(1245,587)" d="m0 0 1 2-2 7-2 1v3l-1 6-2 7-4 7-5 8-3 1-1 5-7 10-3 5-4 7-3 1-6 10-5 5-7 8-2 5-3-3 3-7 2-4 4-2v-2l2-1 3-6 5-1 2-5 4-5v-3l5-3 2-5 5-9 4-10 1-5 8-18 7-6z" fill="#7064D9"/>
<path transform="translate(1283,616)" d="m0 0h5l-4 11-7 10-6 12-2 6-4 2 2-5 3-9h2l3-9 3-5-6 1-9 6-9 9-2 3h-2l-1 4-5 5h-2l-2 4h-2l-2 5-4 5-4 1-2 4-1 3h-5l-4 5-2 2-6 1-3-2-2 4-5 1 6-7 3-3 8 2v-4l5-5 6-5 6-2 8-10 3-3h2l1-4 3-6 5-1 2-5 9-6 5-5h2v-2l6-3 2-4z" fill="#7266D9"/>
<path transform="translate(379,199)" d="m0 0h13l7 3 3 2v11l-2-3-5 8-10-5-18 2-1-3 8-5h2l-1-4h-5l-1-2z" fill="#4E40BD"/>
<path transform="translate(1349,594)" d="m0 0h7l2 4-9 20-6 14-5 7-1-2 5-9v-3l-11 2h-3l2-5 4-6 4-4 5-13 4-2z" fill="#6758D8"/>
<path transform="translate(507,672)" d="m0 0 2 2 1 11 5 1v-2l6-1-4 6-8 8-3 1 1-4 1-2h-5l-1 4-5 4-5 2-3 1-1 2-13-2v-2l-3-1 5-2 4 1 1 3h2l-1-7 1-2h4v-2l6-4 1-1h5l2-4 2-6h2z" fill="#7468DA"/>
<path transform="translate(1084,356)" d="m0 0h2l1 3-3 9-2 19 1 7-3 10-5 6-6-1-1-1v-12l8-21 7-18z" fill="#332490"/>
<path transform="translate(1281,238)" d="m0 0 9 3 14 6 16 10 6 7 5 10-1 2-3-1v-2h-2l-1-2-5 1-14-11-8-5-3-5v-6l-5-2h-5l-3-3z" fill="#392A99"/>
<path transform="translate(1193,633)" d="m0 0 3 1-3 4-4 7-11 14-4 4-2 4h-2l-2 4-3 1v2l-3 1-7 8-4-2-4 4-5 8h-5l-2 6-4 8h-3l-3-9-1-5 3-1 5 2v-2h2l1-3 1-11 7-6 5-2 2-5 6-1-2 3h-2l-2 6-4 6h-2v2l-3 2v2l-3 1-1 5h3l5-7 1-3h2l1-3 5-4h2l1 3 6-5 5-5 9-10 11-15 3-8z" fill="#6A5CD8"/>
<path transform="translate(234,304)" d="m0 0h3l-2 7v2l2 1 1-2-1 4-11 12-8 12-7 7-2-2 1-9 4-11 9-11 9-9z" fill="#4E40BD"/>
<path transform="translate(1072,569)" d="m0 0h1l1 6 3-1 1 8 3-1 3 1-1 19h-2l2 4v3h2l1 8-1 2h-2l1 6-1 5-2-3-4-11-4-18-1-8z" fill="#766BDB"/>
<path transform="translate(811,477)" d="m0 0 9 2 8 2h17l5-3-1 4-7 8-2 1-14 1-16-1-4-2 3-6z" fill="#2E2376"/>
<path transform="translate(1068,653)" d="m0 0 6 1 7 8v4h2l1 2v8l-1 3h5l4-2-1 6-3 8-3-3-4-2-3-5-4-2-8-17z" fill="#4739B8"/>
<path transform="translate(446,666)" d="m0 0 4 2v2l3 1v2l4 2 3 2 2-1 1-7 1-1h6l4 4 4 9 2 3-1 5-2 1-11 1h-19v-1l16-1-11-14-4-6-2-1z" fill="#7569DA"/>
<path transform="translate(775,816)" d="m0 0 8 1 19 1 54 1-1 2-22 2-59 1-14-1v-2l4-2h7z" fill="#382995"/>
<path transform="translate(926,281)" d="m0 0 5 2 9 7 26 20 9 6 9 5 2 2v5l-8-3-18-10-10-9-12-12-7-8z" fill="#372894"/>
<path transform="translate(1270,526)" d="m0 0 1 3-7 30-6 28h-2l-1-9 3-9v-3l-6 1 1-10 2-7h2l1-2h2l2-10 4-8z" fill="#362794"/>
<path transform="translate(1018,481)" d="m0 0 2 1-1 1 3 1v2l2 1h-2l-2 5-5 5 1 3-3 2-1 3 5-1 3 2-1 3h-2v2h-2l1 5-3 1-6-1v2l-4 3-5-1-1-3 10-16 5-13h3v-2h2z" fill="#332490"/>
<path transform="translate(1192,593)" d="m0 0 2 1-1 12-2 4h-2l-1 5-9 17-4 6-2 7-3 5h-3l-6 7-4 6-1-4 6-9 3-5 4-2 5-13 4-8 4-6 1-9 4-10z" fill="#746BE2"/>
<path transform="translate(760,638)" d="m0 0h2l1 2v16l-2 45-3 19-2 2-1-31v-27l6-1z" fill="#3F2F9D"/>
<path transform="translate(1163,675)" d="m0 0 2 1-2 4-1 7 6 2v2l-9-2-1 4-3 3h-2v2l-4 2-2 6-3 8-1 1 3 2h-11l-2-2 4-2 1-3 5-5 2-3-1-6-7-1v-2l5-1 3-5 5-2 3 1 8-7z" fill="#7B74E8"/>
<path transform="translate(1277,445)" d="m0 0 3 4 3 6 1 12-6 28-2-1-1-8h-3l-1-4 5-29z" fill="#382996"/>
<path transform="translate(200,461)" d="m0 0 4 1-1 4-2 3v9l-3 10-4 6v4h-2l-3-8-1-14 3-8 5-5z" fill="#4D3EB9"/>
<path transform="translate(1319,648)" d="m0 0h5l-3 9 6-2-4 6-10 13-9 9-7 1v-3h-4l-1-3 2-2 3-2 1 2 4-5 10-5 2-4h2v-6l2-7z" fill="#7F76E7"/>
<path transform="translate(933,386)" d="m0 0 5 2 12 7 15 6 7 3-5 5-4 2h-5l-2-1-2 2-5-3v-2h-2l-3-9-1-2-4-2-3-5z" fill="#2F2376"/>
<path transform="translate(1052,603)" d="m0 0 3 4 8 1 2 8-1 1-3 19-3 4-4-11-5-20v-5z" fill="#493BB9"/>
<path transform="translate(1356,326)" d="m0 0 4 2 5 7 4 2 5-3h3l1-2 2 5-6 2v3l2 2v9h-14l2-2-3-5-4-2 2-2-2-12z" fill="#4C3EBC"/>
<path transform="translate(1149,416)" d="m0 0h1v19l2 3-1 6-6 8h-4l-3-5 1-9 3-9 1-2-3-1-2-4 4-1 4 1 2-2z" fill="#4E3FBD"/>
<path transform="translate(1346,322)" d="m0 0h6l4 3 3 10 1 7-2 2 4 2 3 6h-7l-3-1v-3h-5l-1-13h-2l-2-8z" fill="#30218A"/>
<path transform="translate(1190,230)" d="m0 0 1 2-2 4v3h4l-2 6-2 4 1 4 4 4 3 5-1 7h-6l-3-5v-2h-2v-3h-2l-2-6 1-2v-8l3-9z" fill="#8A78DB"/>
<path transform="translate(1379,327)" d="m0 0 5 2 1 16-1 5h2v7l-1 5-3-1v3h-2l-2-9-2-2-1-9-2-2 1-4 5-1-3-6v-2z" fill="#332491"/>
<path transform="translate(271,486)" d="m0 0h1l4 21v4l-6 2v5h2l-1 5-2 3-5-23-1-8h2l-1-5 2-1 2 1 1-2z" fill="#4A3CB8"/>
<path transform="translate(1075,679)" d="m0 0 4 2 3 5 5 3 4-1 4-2 10 2 2 5v5l-5 1-1 3-5-1v-2l-5-1-1-3-3 1-9-11z" fill="#6758D7"/>
<path transform="translate(528,548)" d="m0 0h1l1 25 2 2v15l-1 5-2 22-1 1 1 9-2 10-4 4h-1l1-8 1-6 2-23 1-12z" fill="#7B6EDB"/>
<path transform="translate(1324,516)" d="m0 0 1 3 2 1h-2l1 6-6 20-3 6-2 7-4 2-1-1 1-9 8-28 1-4 4-1z" fill="#2D2276"/>
<path transform="translate(750,405)" d="m0 0 18 1 17 5 5 5h-21l-15-5-4-3z" fill="#4334A2"/>
<path transform="translate(1257,596)" d="m0 0 10 5v2h-2l-1 5-4 7-6 9-5 2v-8l2-5 2-8z" fill="#7367D9"/>
<path transform="translate(1142,268)" d="m0 0 5 1-6 11-7 11-7 10-2 4-8 1 5-9h2l2-4 3-5 1-4h2l2-5 5-6z" fill="#7367DA"/>
<path transform="translate(909,321)" d="m0 0 10 4 8 7 8 4 13 3 6 1v2l-7 2-8-1-13-5-9-6-8-9z" fill="#352979"/>
<path transform="translate(253,398)" d="m0 0 4 1 2 4 3 12-2 8 2 4-2 2v3l4-2 1 1 1 15h-2l-1-2h-2l-4-8v-9l-2-9h2v-8l-4-2z" fill="#30218C"/>
<path transform="translate(747,452)" d="m0 0 2 3 4 15 9 14v3l-7-7-15-9 3-13z" fill="#33277E"/>
<path transform="translate(1088,695)" d="m0 0h2l2 3 4 1 1 2h4l1-2 4-2 2-2 9 7 3 3h-8v5l-1 1h2l-1 3-12-6-10-8z" fill="#766CDD"/>
<path transform="translate(1210,199)" d="m0 0 4 1 5 4v-2l5 2 1 6h-6l-5 1-7 1-7 3-3-1 1-5 5-9 3 1-1 4 5 3-1-4-2-2z" fill="#7366D9"/>
<path transform="translate(1331,417)" d="m0 0h1v8l6-2 3 1v11l-2 27h-1l-2-6-3-1 2-13-1-8-3-5z" fill="#4C3EBC"/>
<path transform="translate(1243,653)" d="m0 0 2 1-5 7h-2l-2 5-4 5-4 1-2 4-1 3h-5l-4 5-2 2-6 1-3-2-2 4-5 1 6-7 3-3 8 2v-4l5-5 6-5 6-2 8-10z" fill="#6E62D9"/>
<path transform="translate(1211,700)" d="m0 0h2l-1 8h-3l-1 5-2 1-1-2-7 1-1 3-7-1 2-10 4-4 5 2 7-1z" fill="#7266DA"/>
<path transform="translate(403,593)" d="m0 0 3 2 3 12 5 5 3 8 2 5 4 7 7 11 5 6v2h2v3l3 1 4 6v2h2l-1 3-3-2-3-5-8-11-4-4-3-6-6-9-4-4-3-5-6-17-2-3z" fill="#7368DA"/>
<path transform="translate(1245,587)" d="m0 0 1 2-2 7-2 1v3l-1 6-2 7-4 7-5 8h-3l2-6h2v-3l3-2-2-4h2l-1-7 1-5 3-6 6-5z" fill="#6657D8"/>
<path transform="translate(1234,206)" d="m0 0 5 2 11 8 8 8 3 5 5 5v3h-3v-2l-6-1-4-6-2-1-2-6-7-4-2-3-5-2z" fill="#6C5FD6"/>
<path transform="translate(1084,669)" d="m0 0 2 2v6h3l1-3 7-2 7 14v2l-11-1-4 3 1-7 2-6-4 3-5-1z" fill="#685BD8"/>
<path transform="translate(1193,633)" d="m0 0 3 1-3 4-4 7-11 14-4 4-2 4h-2l-2 4-3 1v2l-3 1-7 8-4-2-4 4-5 6v-3l3-4 1-3h2l1-3 5-4h2l1 3 6-5 5-5 9-10 11-15 3-8z" fill="#6455D8"/>
<path transform="translate(310,343)" d="m0 0 3 3v25h-2v-2l-3-1v-3h-3v-12l1-8z" fill="#30218C"/>
<path transform="translate(1165,231)" d="m0 0 3 1-1 7 1 4-9 11-11 15-5-1 2-1 2-5 4-8 4-2h4l3-10v-3-3z" fill="#695AD8"/>
<path transform="translate(1271,484)" d="m0 0 1 2h3l2 8-1 10-1 5-3-3h-4v2h-2l1-9 3-14z" fill="#302478"/>
<path transform="translate(1334,382)" d="m0 0 1 3 1 9-1 10 1 5 4 8-2 4h2l-1 4-2-1-5 1v-36z" fill="#2B2074"/>
<path transform="translate(1316,609)" d="m0 0 2 1 1 5-3 3-1 4-5 3-2 5h-2l-1 5-4 6-1 4h-2v2h-2l-2 4-1-3 3-8 6-8 2-4 3-3 3-7 4-4z" fill="#6455D8"/>
<path transform="translate(1320,322)" d="m0 0h2l1 3 5 2v-5h1v13 4l-1 2-4 1h-9v-1l8-1v-2l-4-1-2-1 1-6-2-4h2z" fill="#6959D6"/>
<path transform="translate(1192,593)" d="m0 0 2 1-1 12-2 4h-2l-1 5-7 14-1-4 3-8v-10l4-10z" fill="#7165D9"/>
<path transform="translate(1224,594)" d="m0 0 9 2-1 4-6 8-4 2h-8l-3 2 2-4 8-6-1-4z" fill="#6253D3"/>
<path transform="translate(1331,429)" d="m0 0 4 5 1 8-1 9-3 1-1 15-2 10h-1v-16l2-28z" fill="#32267E"/>
<path transform="translate(1189,645)" d="m0 0v3l-6 8-3 7h-2v2l-3 1-3 5-4 4h-5l-2 5-8 7-4-1-3 1 2-5 4-2 3 2 7-8h3v-2l7-6 2-4h2l2-4 9-11z" fill="#7368DA"/>
<path transform="translate(261,391)" d="m0 0h1l2 29v10l-4 2-1-4 3-1-2-1-1-4 2-9-3-10-1-4-3 1-1 9h-1v-15l4 2 4-1z" fill="#5041BE"/>
<path transform="translate(557,389)" d="m0 0h6l-1 6 3 1-2 2-16 2-1-5-5-2v-1z" fill="#4E40BD"/>
<path transform="translate(1270,526)" d="m0 0 1 3-6 26-5 2-1-6 3-13 4-8z" fill="#4132A6"/>
<path transform="translate(1227,328)" d="m0 0 3 1v29l-2 23-2 3v-55z" fill="#342786"/>
<path transform="translate(756,679)" d="m0 0 2 2 2 4v24l-2 11-2 2z" fill="#2D2173"/>
<path transform="translate(1075,604)" d="m0 0 4 1 6 3 1 8-1 2h-2l1 6-1 5-2-3-4-11z" fill="#7B73E6"/>
<path transform="translate(1188,696)" d="m0 0 5 1 4 4-4 4-3 9-4-1-5-3 2-1v-2h4l-1-7z" fill="#8B7ADB"/>
<path transform="translate(1319,648)" d="m0 0h5l-3 9 6-2-4 6-7 9-4-1 1-5 1-2h2v-6l2-7z" fill="#8C7BDB"/>
<path transform="translate(1063,631)" d="m0 0 2 4 4 5-2 8h2l2 5h-3v5l-3 2-3-7v-19z" fill="#6F5FD8"/>
<path transform="translate(521,653)" d="m0 0 5 2 2 15-3 2-6-5-2-3 1-6h2z" fill="#4638B8"/>
<path transform="translate(1232,605)" d="m0 0 3 1h-2l1 7-1 1 2 1-2 4h-2v3h-2l-1 6-1 4-5 3-2 2 1-5 4-8 2-7 2-5z" fill="#7469DA"/>
<path transform="translate(1232,265)" d="m0 0 5 1 1 2 5 1 2 7-1 5-3 1-1 6-1-3-1-4-1-2 1-6-4 1z" fill="#6657D8"/>
<path transform="translate(574,387)" d="m0 0h6v1h-5v6l7 1v1l-18 1-2-2 1-7z" fill="#5041BE"/>
<path transform="translate(1049,434)" d="m0 0 9 3-2 4-6 5h-2l-2 6-3-1v-6l3-1 1-9z" fill="#4E40BD"/>
<path transform="translate(463,506)" d="m0 0 5 5 11 12-2 2h-5v-2l-4-1-2-5-4-4z" fill="#766BDA"/>
<path transform="translate(305,370)" d="m0 0 3 1 3 5 2 7 1 4-6 2-1 2h-2z" fill="#090715"/>
<path transform="translate(1229,221)" d="m0 0 5 5 9 6v7h-2l-2 2-1-2-4-2-4-10z" fill="#6455D8"/>
<path transform="translate(1250,240)" d="m0 0 2 3 3 5 4 3 2 5 1 4-7 1-2-4v-5l-4-2-1-5z" fill="#6556D8"/>
<path transform="translate(1184,692)" d="m0 0 5 2 2 1-1 2h-2l-1 7v3h-4v2l-5-1 2-10 3-3z" fill="#7468DA"/>
<path transform="translate(580,387)" d="m0 0h9v7l-1 1h-14l1-7z" fill="#31228E"/>
<path transform="translate(369,382)" d="m0 0 2 2 2 25 1 7-1 10-2-3-2-17z" fill="#382A91"/>
<path transform="translate(1265,676)" d="m0 0 5 1 5 3 1 7h-13z" fill="#8A78DA"/>
<path transform="translate(986,289)" d="m0 0h3l5 16-1 3-6-2-3-13z" fill="#2B2071"/>
<path transform="translate(1219,291)" d="m0 0 3 1v3l5 2 1 1 5 1v5l-4 1v5l-3-1-1-4-2-1 2-5h-7v-6z" fill="#6455D8"/>
<path transform="translate(1112,704)" d="m0 0 9 1 4 2-3 5-3 1-1 2-5-1v-3l-3 1-1-2h3l-1-5z" fill="#7064D8"/>
<path transform="translate(1142,268)" d="m0 0 5 1-6 11-5 8-4-3 1-4 3-5 3-3z" fill="#7569DB"/>
<path transform="translate(1308,250)" d="m0 0 9 5 7 6-2 5-2-1v-2h-5v-2h2l-1-2-4 1-5-3z" fill="#7566D8"/>
<path transform="translate(1204,221)" d="m0 0 1 2-2 10-4 4-2-1v-2h-2l-1-3v-3l4-4z" fill="#8C7ADB"/>
<path transform="translate(1347,292)" d="m0 0 5 1 9 7 1 4v3l-4 1-3-4-5-5-3-5z" fill="#33248E"/>
<path transform="translate(750,405)" d="m0 0 18 1-3 1 1 7-10-2-6-4z" fill="#4C3DBC"/>
<path transform="translate(1379,498)" d="m0 0 5 1 1 4-4 4-1 6-3 2h-3l1-7 3-9z" fill="#352692"/>
<path transform="translate(1277,445)" d="m0 0 3 4 3 7-1 3h-2l-2 10-4 1 2-17z" fill="#4A3CB8"/>
<path transform="translate(1096,672)" d="m0 0 4 5 4 9v2l-9-1-1-5z" fill="#8077E5"/>
<path transform="translate(1076,586)" d="m0 0 6 1 1 1v11l-4 2-3-1 2-6h-2l-1-7z" fill="#7971E7"/>
<path transform="translate(1028,483)" d="m0 0 4 1-1 7-3 8h-3l-1 3v-2l-3-1 3-4v-4h2z" fill="#352692"/>
<path transform="translate(258,429)" d="m0 0h2v3l4-2 1 1 1 15h-2l-1-2h-2l-4-8z" fill="#372894"/>
<path transform="translate(1374,313)" d="m0 0 5 5 5 9-1 2-4-1-4 1-1-2v-7l-1-4-3-1z" fill="#493BB9"/>
<path transform="translate(1152,700)" d="m0 0 4 2-1 5-7 9h-6l7-11z" fill="#4C3EBB"/>
<path transform="translate(1247,691)" d="m0 0 4 1-11 11-6 3-1-4 4-6 3-3h2v4z" fill="#8279E6"/>
<path transform="translate(1182,611)" d="m0 0 2 1-1 9h-2l-1 10-5 7-4-1 7-15 4-6z" fill="#766DE4"/>
<path transform="translate(1149,416)" d="m0 0h1v11l-1 8-3-4v-2l-5 2 2-4-3-1-2-4 4-1 4 1 2-2z" fill="#6C5DD7"/>
<path transform="translate(1209,704)" d="m0 0 2 4h-2l-1 5-2 1-1-2-7 1-1 3-5-1 1-3 5-2 1-2 2 1 1-4 4 1 1 2z" fill="#4739B8"/>
<path transform="translate(1261,529)" d="m0 0h3l1 4-2 5-2 7-1 3h-2l-1 3h-1l1-10 3-11z" fill="#291F67"/>
<path transform="translate(371,202)" d="m0 0 9 1 1 5-3 1v2h-5v3l2 1-8 2-1-3 8-5h2l-1-4h-5l-1-2z" fill="#6859D8"/>
<path transform="translate(525,618)" d="m0 0h3l1 9-2 10-4 4h-1l1-8z" fill="#7368DA"/>
<path transform="translate(1038,375)" d="m0 0 2 3 1 6-1 5v10l-3 3-2-10 1-9 1-1z" fill="#483AB9"/>
<path transform="translate(269,473)" d="m0 0h1l1 6v8l-3 3h-4v-12l3-1 2 1z" fill="#362794"/>
<path transform="translate(1059,621)" d="m0 0h1v17l-2 2-4-11v-5z" fill="#04030A"/>
<path transform="translate(1165,231)" d="m0 0 3 1-1 7 1 4-6 7-2-1 2-9v-1-3z" fill="#6556D8"/>
<path transform="translate(1251,221)" d="m0 0 3 1v2l4 1 5 7 3 2v3h-3v-2l-6-1-5-8z" fill="#8372DA"/>
<path transform="translate(1153,664)" d="m0 0 3 1-4 2-2 6-3 5h-4l-1-2h-2v3l-4 1 2-4 5-4 5-2 2-5z" fill="#7064D9"/>
<path transform="translate(1227,328)" d="m0 0 3 1v22h-3l-1-22z" fill="#1A1346"/>
<path transform="translate(1334,318)" d="m0 0 7 1v2h-2l1 3-3 7h-6l-1-3h4l-1-7z" fill="#6555D8"/>
<path transform="translate(403,593)" d="m0 0 3 2 3 12 3 6 3 9 2 3-1 3-5-8-6-17-2-3z" fill="#6455D8"/>
<path transform="translate(881,368)" d="m0 0 3 3 1 17 1 1v6l-3-3v-10h-2v-2l-3-1 1-5z" fill="#5143BF"/>
<path transform="translate(305,365)" d="m0 0h3l1 3 2 1v2l3 1v12l-3-3-2-6-2-4-2-1z" fill="#2C2174"/>
<path transform="translate(1322,270)" d="m0 0 3 1v2h2v2h5l3 3v2l-6-2-6-3 6 5-2 6-2-4-4-5-1-5z" fill="#7D6DD7"/>
<path transform="translate(1024,372)" d="m0 0 3 1 4 6-3 13h-2z" fill="#2F2476"/>
<path transform="translate(304,338)" d="m0 0h2l1 10-1 5-1 20h-1l-2-29z" fill="#5042C1"/>
<path transform="translate(1330,315)" d="m0 0 7 2v2h-2l-1 5v4h-4l-1 2v-14z" fill="#4D3FBD"/>
<path transform="translate(1304,279)" d="m0 0 4 2 4 3 1 12-4-4-2-1v-3l-2-1z" fill="#6859D7"/>
<path transform="translate(849,478)" d="m0 0 1 3-4 5-11 2-3-5 11-1z" fill="#080614"/>
<path transform="translate(285,575)" d="m0 0 3 3 5 9-1 5-4-1-3-11z" fill="#1F174F"/>
<path transform="translate(1077,398)" d="m0 0h5l-3 8-4 4-6-1 3-5 5-1z" fill="#4B3DBC"/>
<path transform="translate(1069,656)" d="m0 0 3 1 1 4-1 5v6l5 1-1 3-4-1-4-8v-7z" fill="#332491"/>
<path transform="translate(1225,632)" d="m0 0 1 2-7 10-3 5-4 7-3-1h2l1-4 4-8 2-5 3-1 1-3z" fill="#6557D8"/>
<path transform="translate(1192,593)" d="m0 0 2 1-1 12-2 4h-2l1-8-4-1 2-5z" fill="#6757D8"/>
<path transform="translate(1398,513)" d="m0 0h1v6l-4 10-2 6-3-1 1-4 2-10h2z" fill="#31228F"/>
<path transform="translate(1174,230)" d="m0 0 4 1-7 8-3 3-2-5 3-6z" fill="#776CDA"/>
<path transform="translate(1153,696)" d="m0 0h4l1 5-2 2-4-3-1 4-5 7-1-3 2-4 2-5 4-1z" fill="#6758D8"/>
<path transform="translate(1265,543)" d="m0 0h2l-1 8-2 4-4 2-1-6 3-5h2z" fill="#4B3CBB"/>
<path transform="translate(1266,273)" d="m0 0h1l2 30-3-3-2-9z" fill="#6E61D9"/>
<path transform="translate(926,281)" d="m0 0 5 2 9 7 5 4v4l-4-1-11-12z" fill="#120E2A"/>
<path transform="translate(1125,707)" d="m0 0h7v2l-5-1v8h-8v-4h3l2-4z" fill="#887FE8"/>
<path transform="translate(1219,706)" d="m0 0h2l-1 7-9 3-3-1 5-5 2-3z" fill="#907FDC"/>
<path transform="translate(866,440)" d="m0 0 7 1 2 2 7 3v1h-12v-2l-4-2z" fill="#5748BF"/>
<path transform="translate(304,242)" d="m0 0h5l-3 2-3 3-3 5-1-3-4 2-2 2-4-1 11-8z" fill="#7F71DC"/>
<path transform="translate(1252,607)" d="m0 0h1l1 12 3 1-5 5-3 1v-8l2-5z" fill="#6455D8"/>
<path transform="translate(1334,382)" d="m0 0 1 3 1 9-1 10h-3v-15z" fill="#392B90"/>
<path transform="translate(1281,238)" d="m0 0 9 3 12 5-1 4-5 1-2-6-5-2h-5l-3-3z" fill="#090816"/>
<path transform="translate(860,464)" d="m0 0 3 1-1 4-5 4-6 7-2-3 8-9z" fill="#3F328C"/>
<path transform="translate(1288,243)" d="m0 0 6 1 1 1v7l2 4-4-1-2-5-5-5h2z" fill="#978AE1"/>
<path transform="translate(782,495)" d="m0 0 1 3-4 10-4-1 1-7z" fill="#4435A1"/>
<path transform="translate(252,387)" d="m0 0h5l3 4v5l-5 1v-2l-3-1z" fill="#30218C"/>
<path transform="translate(1086,666)" d="m0 0h3v2h3v5l-3 4h-3l-1-10z" fill="#8B79DB"/>
<path transform="translate(316,416)" d="m0 0 2 2 1 8v15h-1l-3-17v-6z" fill="#0C091C"/>
<path transform="translate(1142,675)" d="m0 0 1 3 3 1h-2v2l-3 2v2l-3 1-2 3v-9l4-1v-3z" fill="#6455D8"/>
<path transform="translate(1138,710)" d="m0 0 7 1-2 4 3 2h-11l-2-2 4-2z" fill="#7970E3"/>
<path transform="translate(281,544)" d="m0 0 5 2 2 6-1 4-2-5h-5l-1-4z" fill="#2F2477"/>
<path transform="translate(1052,449)" d="m0 0h1l2 6 3 4-2 4-7-3v-6zm1 7 1 4h2l-2-4z" fill="#7D6DDA"/>
<path transform="translate(374,319)" d="m0 0 2 1-1 5h-6l2 2 2-1-1 9-2-4-3-2 1-5-2-1 7-3z" fill="#6D5FD8"/>
<path transform="translate(1325,614)" d="m0 0 4 1 1 3-4 8h-2l-2-8z" fill="#6859D8"/>
<path transform="translate(987,289)" d="m0 0h2l4 13-1 3-4-5-2-4z" fill="#060511"/>
<path transform="translate(1202,711)" d="m0 0 4 1 2 1v3l-3 1h-8l1-5z" fill="#7163DA"/>
<path transform="translate(640,806)" d="m0 0 6 1 3 2-1 4h-6l-2-1z" fill="#352691"/>
<path transform="translate(1184,692)" d="m0 0 3 1-3 9-2 1-2 5h-2l2-10 3-3z" fill="#6051D3"/>
<path transform="translate(481,525)" d="m0 0 8 3-5 6-5-2z" fill="#7569DA"/>
<path transform="translate(557,389)" d="m0 0h6l-1 6 3 1-1 1h-5l-4-5v-2z" fill="#291E6B"/>
<path transform="translate(369,372)" d="m0 0 2 2 1 7v13h-1l-1-10-2 4v-14z" fill="#4A3AA3"/>
<path transform="translate(1339,364)" d="m0 0 4 1 1 5-1 9-2-4-3-4z" fill="#352690"/>
<path transform="translate(1320,322)" d="m0 0h2l1 4-1 4 3 4v2l-6-1-1-5-2-4h2z" fill="#8473DA"/>
<path transform="translate(1063,631)" d="m0 0 2 4 4 5-2 8h2l1 3h-2v-2h-2l-1-8h-2l-1-7z" fill="#7368DA"/>
<path transform="translate(1275,284)" d="m0 0h1l2 9 3 2-1 5-2 3h-2l-1-10z" fill="#6D5ED8"/>
<path transform="translate(1226,243)" d="m0 0 4 2 1 5v1l2 1-1 13h-1l-1-8-3-9z" fill="#6455D8"/>
<path transform="translate(760,638)" d="m0 0h2l1 2v16l-2 3z" fill="#362A7E"/>
<path transform="translate(537,623)" d="m0 0h3v10l1 7-3-2-2-10z" fill="#2F2089"/>
<path transform="translate(1008,518)" d="m0 0 4 2v4h-3l-1 4h-4l1-6 2-1z" fill="#30218C"/>
<path transform="translate(226,319)" d="m0 0 4 2-1 4-5 3-2-1v-6z" fill="#6657D8"/>
<path transform="translate(1065,560)" d="m0 0 3 1-1 15h-1l-1-8-4-1 1-4z" fill="#776CDD"/>
<path transform="translate(1048,529)" d="m0 0h1v12l3 1 1 4-5 5z" fill="#6556D3"/>
<path transform="translate(1248,305)" d="m0 0h2v2l10 3 1 2-6 2-2-1-4-1zm4 4 2 3 2-1z" fill="#7766D9"/>
<path transform="translate(1232,695)" d="m0 0 1 3-3 9h-2l-1 3h-2l2-9 2-4z" fill="#6556D8"/>
<path transform="translate(1060,614)" d="m0 0h2l-1 22h-1l-1-14-4 1 2-3h2v-5z" fill="#2C2079"/>
<path transform="translate(1219,291)" d="m0 0 3 1v3l5 2-2 3-7-1v-6z" fill="#6354D7"/>
<path transform="translate(1323,262)" d="m0 0 4 4 4 8-1 2-3-1v-2h-2z" fill="#0D0A20"/>
<path transform="translate(1178,222)" d="m0 0 2 1-3 7-9 2v-2h3v-2l-2-1 7-3z" fill="#6455D8"/>
<path transform="translate(1111,699)" d="m0 0 5 2 4 4h-8v5l-3-1 1-5z" fill="#847DE9"/>
<path transform="translate(1092,688)" d="m0 0 6 1 1 4-3 3-6-3z" fill="#4638B8"/>
<path transform="translate(1273,649)" d="m0 0 5 1 1 2-5 5-3 1-1-4z" fill="#4638B8"/>
<path transform="translate(539,393)" d="m0 0 5 1 3 3v3h-6l-3-6z" fill="#32238F"/>
<path transform="translate(1358,345)" d="m0 0 4 1 3 6h-7l-2-2 1-4z" fill="#2E2279"/>
<path transform="translate(1274,326)" d="m0 0 6 2-2 4-5 1-5-1v-2h4z" fill="#6454CB"/>
<path transform="translate(289,253)" d="m0 0 3 1v2l-8 7-2 3-2-1 2-5h2l2-4z" fill="#6455D8"/>
<path transform="translate(939,246)" d="m0 0 5 2 2 1v2h3l1 5-12-6z" fill="#2F2478"/>
<path transform="translate(1194,201)" d="m0 0 3 3-4-1v4l-7 3h-5l3-3z" fill="#695AD6"/>
<path transform="translate(477,698)" d="m0 0 4 1 1 3h2l1-2v3l-7 1-3-1v-2l-3-1z" fill="#8074DC"/>
<path transform="translate(1127,697)" d="m0 0 3 1v2l3 1-2 6h-3l-2-9z" fill="#766BDA"/>
<path transform="translate(773,580)" d="m0 0 5 1 3 3v6l-7-6z" fill="#7066D5"/>
<path transform="translate(1316,549)" d="m0 0 1 3-2 7-4 2-1-1v-6h4z" fill="#32238F"/>
<path transform="translate(330,497)" d="m0 0h1l2 12-6-1v-6l3-1z" fill="#5143BE"/>
<path transform="translate(1040,419)" d="m0 0 2 3v9h-3l-4 2 1-5 3-2z" fill="#4A3CBB"/>
<path transform="translate(253,408)" d="m0 0 4 2 1 6-1 2h-2l-1 2-1-3z" fill="#2D2176"/>
<path transform="translate(470,268)" d="m0 0 4 2 3 10-4-2-3-6z" fill="#332490"/>
<path transform="translate(1088,695)" d="m0 0h2l2 3 4 1 3 4v3l-4-2-6-5z" fill="#8C85E8"/>
<path transform="translate(1207,680)" d="m0 0 8 2-3 2h-3v-2l-3 2-3 5-5 1 6-7z" fill="#6B5DD8"/>
<path transform="translate(1087,401)" d="m0 0 3 3-1 4-1 1h-5v-3z" fill="#493AB3"/>
<path transform="translate(1225,275)" d="m0 0h2v2l3 1-1 8h-3l-1-2z" fill="#8A78DA"/>
<path transform="translate(1250,240)" d="m0 0 2 3 2 4v5l-4-1-2-6z" fill="#7062D9"/>
<path transform="translate(1234,206)" d="m0 0 5 2 6 4v2l-10-2z" fill="#8B7CDD"/>
<path transform="translate(756,704)" d="m0 0 2 3 1 2v7l-2 6h-1z" fill="#6051CB"/>
<path transform="translate(434,697)" d="m0 0 5 4 1 5-8-1 2-2z" fill="#7162D8"/>
<path transform="translate(1270,505)" d="m0 0 3 1-1 7h-4l-2-2-1-3h3v-2z" fill="#31228C"/>
<path transform="translate(1288,375)" d="m0 0 3 3 1 5-5 2-1-5z" fill="#30218C"/>
<path transform="translate(1091,338)" d="m0 0h2v2h2v-2l3 1-1 5-3 1-2-1v-2h-2z" fill="#31228E"/>
<path transform="translate(1268,324)" d="m0 0 6 1-1 5-2 1-3-1-1 2v-6z" fill="#332490"/>
<path transform="translate(1234,231)" d="m0 0 4 1 3 5-2 4-1-2-4-2z" fill="#7265D9"/>
<path transform="translate(1275,637)" d="m0 0v3l-6 15-4 2 2-5 3-9h2l2-5z" fill="#7368DA"/>
<path transform="translate(1122,467)" d="m0 0h10l-2 4-5 2-3-4z" fill="#6B5DD3"/>
<path transform="translate(207,405)" d="m0 0h2l1 5-3 3h-3v-7z" fill="#31228F"/>
<path transform="translate(1255,229)" d="m0 0h2v2h3l1-2 5 5v3h-3v-2l-6-1z" fill="#6E61D9"/>
<path transform="translate(1211,700)" d="m0 0h2l-1 8-3-3-2 4-2-1-1-4z" fill="#6859D8"/>
<path transform="translate(1084,669)" d="m0 0 2 2v6h3l1-3 2 1-4 5-5-1z" fill="#7065DE"/>
<path transform="translate(1267,537)" d="m0 0h1v6l-3 1-4 4-1-3 2-7 1 3z" fill="#342591"/>
<path transform="translate(945,294)" d="m0 0 6 4-2 5-4-2-2-3h2z" fill="#2E2374"/>
<path transform="translate(532,649)" d="m0 0 6 1-2 7-1-2h-5v-4h2z" fill="#796EDB"/>
<path transform="translate(1135,263)" d="m0 0 2 3-4 6-4 2 1-5z" fill="#4638B8"/>
<path transform="translate(781,585)" d="m0 0 5 4 5 2-1 2h-5l-4-3z" fill="#130E32"/>
<path transform="translate(588,461)" d="m0 0 3 1 1 2-12 2v-2h-5v-1z" fill="#6757CC"/>
<path transform="translate(824,487)" d="m0 0 5 1v4l-10-1 2-3z" fill="#0C0B13"/>
<path transform="translate(1213,225)" d="m0 0 5 5-1 5-3-2v-3l-5-1 1-2h2z" fill="#6455D8"/>
<path transform="translate(1080,669)" d="m0 0h2l1 4-2 6-4-1z" fill="#30218C"/>
<path transform="translate(1060,636)" d="m0 0 2 3 1 9v2h-2l-3-10z" fill="#4739AF"/>
<path transform="translate(1257,596)" d="m0 0 4 3v3l-6 2-1 3-1-2z" fill="#6657D8"/>
<path transform="translate(1257,575)" d="m0 0 2 2-1 10h-2l-1-9z" fill="#3D2E9C"/>
<path transform="translate(1281,443)" d="m0 0h2v12l-4-4-1-3z" fill="#30218C"/>
<path transform="translate(304,338)" d="m0 0h2v8l-1 1-1 8h-1l-1-11z" fill="#7566D9"/>
<path transform="translate(1234,283)" d="m0 0h2l1 8h-2v5h-1l-1-7-1-4z" fill="#8E7DDC"/>
<path transform="translate(1243,653)" d="m0 0 2 1-5 7h-2v2l-5 2 6-8z" fill="#6C60D9"/>
<path transform="translate(1077,600)" d="m0 0h6l-2 1 2 4-1 3-5-3-2-2 2-2z" fill="#7368DA"/>
<path transform="translate(1344,339)" d="m0 0 1 3h2l1 4-6 3v-3z" fill="#30218C"/>
<path transform="translate(1307,333)" d="m0 0 4 1-2 2-1 4-7-1 3-2v-3z" fill="#7364D9"/>
<path transform="translate(1322,326)" d="m0 0 6 1v5l-1-2h-3v2h-2l-1-5z" fill="#7364D9"/>
<path transform="translate(1105,311)" d="m0 0h3l-1 5-2 3-5 1z" fill="#30218C"/>
<path transform="translate(1143,705)" d="m0 0 4 1-2 5-6 1 2-5z" fill="#8B79DB"/>
<path transform="translate(1060,599)" d="m0 0 2 1-1 5-4 1-2-1 2-4z" fill="#7368DA"/>
<path transform="translate(1046,444)" d="m0 0 4 2h-2l-2 6-3-1v-6z" fill="#7867D6"/>
<path transform="translate(1146,402)" d="m0 0h1l1 6-4 1-5 6-1-2 3-5 3-3h2z" fill="#7062D9"/>
<path transform="translate(1122,297)" d="m0 0h2v2h-2v3l3 1v2l-8 1z" fill="#6455D8"/>
<path transform="translate(1267,287)" d="m0 0h1l1 16-3-3-1-7h2z" fill="#786ADB"/>
<path transform="translate(1207,682)" d="m0 0h2v2l7-2-2 4-6 1-3-3z" fill="#7368DA"/>
<path transform="translate(292,585)" d="m0 0 3 2 1 5-7 3-1-4h4z" fill="#352692"/>
<path transform="translate(1385,485)" d="m0 0 5 1-2 6-3 1z" fill="#30218C"/>
<path transform="translate(670,401)" d="m0 0h2l4 10-4 1-2-6z" fill="#7767D5"/>
<path transform="translate(1020,349)" d="m0 0h4 2l-1 6h-5l-1-5z" fill="#2C2173"/>
<path transform="translate(1362,341)" d="m0 0 5 1 2 5-8-2z" fill="#6455D8"/>
<path transform="translate(1119,313)" d="m0 0 1 2-4 7-4-2 2-4z" fill="#695AD7"/>
<path transform="translate(1258,225)" d="m0 0 9 6 2 4-4-1-5-5z" fill="#4F41BE"/>
<path transform="translate(1320,519)" d="m0 0 2 3-3 12-3 2z" fill="#4233A1"/>
<path transform="translate(1191,213)" d="m0 0h3l1 4-3 2-3-1 1-2-3-1z" fill="#6F62D9"/>
<path transform="translate(1150,698)" d="m0 0 2 1-4 9-3 3 1-5 3-7z" fill="#7166DA"/>
<path transform="translate(1205,685)" d="m0 0 5 2-4 4-3 1-2-2z" fill="#9787DE"/>
<path transform="translate(1172,638)" d="m0 0 2 1-2 9-3 2-2-2 4-6z" fill="#6556D8"/>
<path transform="translate(1095,409)" d="m0 0h7v3l2 1-9-1z" fill="#382995"/>
<path transform="translate(945,340)" d="m0 0h9v2l-2 1h-8z" fill="#332587"/>
<path transform="translate(1335,284)" d="m0 0 5 2 2 2v4l-4-2-3-4z" fill="#3A2B98"/>
<path transform="translate(1136,422)" d="m0 0 4 2v2l4 1-2 3-3-1-3-5z" fill="#5547C2"/>
<path transform="translate(832,406)" d="m0 0 6 1 4 4-10-1z" fill="#3D318B"/>
<path transform="translate(267,328)" d="m0 0 4 2 1 4-2 6h-1l-1-8z" fill="#7B6AD9"/>
<path transform="translate(1325,273)" d="m0 0h2v2h5l3 3v2l-6-2-4-3z" fill="#4F41B4"/>
<path transform="translate(293,646)" d="m0 0 2 1v7l-1 2h-2z" fill="#6454C9"/>
<path transform="translate(263,310)" d="m0 0 5 5 1 5-4-4z" fill="#7363D3"/>
<path transform="translate(201,495)" d="m0 0h2l-2 4-2 1z" fill="#7767D6"/>
<path transform="translate(394,226)" d="m0 0h2l-1 4h-2z" fill="#8373DA"/>
<path transform="translate(1060,394)" d="m0 0h3v2h-3z" fill="#8B79DB"/>
<path transform="translate(446,404)" d="m0 0v3z" fill="#8B79DB"/>
<path transform="translate(859,420)" d="m0 0 2 2h-2z" fill="#8B79DB"/>
<path transform="translate(1057,401)" d="m0 0 3 1z" fill="#7E6DDA"/>
<path transform="translate(887,385)" d="m0 0" fill="#7E6DDA"/>
<path transform="translate(923,279)" d="m0 0 2 1z" fill="#8B79DB"/>
<path transform="translate(314,612)" d="m0 0" fill="#8B79DB"/>
<path transform="translate(198,500)" d="m0 0" fill="#8B79DB"/>
<path transform="translate(764,488)" d="m0 0" fill="#8B79DB"/>
<path transform="translate(763,487)" d="m0 0" fill="#6455D8"/>
<path transform="translate(514,469)" d="m0 0" fill="#8B79DB"/>
<path transform="translate(782,420)" d="m0 0" fill="#8B79DB"/>
<path transform="translate(1055,400)" d="m0 0" fill="#8B79DB"/>
<path transform="translate(907,319)" d="m0 0" fill="#8B79DB"/>
<path transform="translate(906,318)" d="m0 0" fill="#8B79DB"/>
<path transform="translate(905,317)" d="m0 0" fill="#6455D8"/>
<path transform="translate(904,316)" d="m0 0" fill="#6455D8"/>
<path transform="translate(903,315)" d="m0 0" fill="#6455D8"/>
<path transform="translate(262,309)" d="m0 0" fill="#8B79DB"/>
<path transform="translate(1237,303)" d="m0 0" fill="#8B79DB"/>
<path transform="translate(1335,280)" d="m0 0" fill="#8B79DB"/>
<path transform="translate(925,280)" d="m0 0" fill="#2B2070"/>
<path transform="translate(920,277)" d="m0 0" fill="#8B79DB"/>
</svg>
